<svg width="24" height="24" viewBox="0 0 24 24" fill="none" xmlns="http://www.w3.org/2000/svg">
<g clip-path="url(#clip0_9_121)">
<path d="M21.7986 12.1111C21.7986 17.4614 17.4614 21.7986 12.1111 21.7986C6.76081 21.7986 2.42358 17.4614 2.42358 12.1111C2.42358 6.76081 6.76081 2.42358 12.1111 2.42358C17.4614 2.42358 21.7986 6.76081 21.7986 12.1111ZM10.9905 17.2405L18.178 10.053C18.4221 9.80898 18.4221 9.41323 18.178 9.16917L17.2942 8.2853C17.0501 8.0412 16.6544 8.0412 16.4103 8.2853L10.5486 14.1469L7.8119 11.4103C7.56784 11.1662 7.1721 11.1662 6.928 11.4103L6.04413 12.2941C5.80007 12.5382 5.80007 12.9339 6.04413 13.178L10.1066 17.2405C10.3507 17.4846 10.7464 17.4846 10.9905 17.2405Z" fill="white"/>
</g>
<defs>
<clipPath id="clip0_9_121">
<rect width="20" height="20" fill="white" transform="translate(2.11108 2.11108)"/>
</clipPath>
</defs>
</svg>
