<svg width="32" height="32" viewBox="0 0 32 32" fill="none" xmlns="http://www.w3.org/2000/svg">
<path d="M15.333 3.2349L5.25124 5.25127L3.23487 15.3331C3.20259 15.4945 3.21066 15.6614 3.25836 15.819C3.30607 15.9765 3.39194 16.1199 3.50835 16.2363L16.5649 29.2929C16.6578 29.3858 16.768 29.4594 16.8894 29.5097C17.0107 29.5599 17.1407 29.5858 17.2721 29.5858C17.4034 29.5858 17.5334 29.5599 17.6547 29.5097C17.7761 29.4594 17.8863 29.3858 17.9792 29.2929L29.2929 17.9792C29.3857 17.8863 29.4594 17.7761 29.5096 17.6548C29.5599 17.5334 29.5858 17.4034 29.5858 17.2721C29.5858 17.1408 29.5599 17.0107 29.5096 16.8894C29.4594 16.7681 29.3857 16.6578 29.2929 16.565L16.2363 3.50838C16.1199 3.39197 15.9765 3.3061 15.8189 3.25839C15.6614 3.21069 15.4945 3.20262 15.333 3.2349V3.2349Z" stroke="black" stroke-width="1.5" stroke-linecap="round" stroke-linejoin="round"/>
<path d="M10.5 11.75C11.1904 11.75 11.75 11.1904 11.75 10.5C11.75 9.80964 11.1904 9.25 10.5 9.25C9.80964 9.25 9.25 9.80964 9.25 10.5C9.25 11.1904 9.80964 11.75 10.5 11.75Z" fill="black"/>
</svg>
